<?xml version="1.0" standalone="no"?>
<!DOCTYPE svg PUBLIC "-//W3C//DTD SVG 20010904//EN"
 "http://www.w3.org/TR/2001/REC-SVG-20010904/DTD/svg10.dtd">
<svg version="1.0" xmlns="http://www.w3.org/2000/svg"
 width="256.000000pt" height="256.000000pt" viewBox="0 0 256.000000 256.000000"
 preserveAspectRatio="xMidYMid meet">
<metadata>
Created by potrace 1.11, written by Peter Selinger 2001-2013
</metadata>
<g transform="translate(0.000000,256.000000) scale(0.100000,-0.100000)"
fill="#000000" stroke="none">
<path d="M713 1909 c-16 -16 -17 -51 -1 -67 7 -7 28 -12 48 -12 61 0 69 -9
166 -214 15 -31 11 -42 -20 -48 -10 -1 -24 -12 -30 -23 -6 -11 -21 -34 -33
-51 -12 -17 -38 -64 -58 -105 -20 -40 -39 -77 -44 -82 -5 -5 -27 1 -49 12 -23
12 -50 21 -60 21 -11 0 -25 7 -32 15 -17 21 -154 20 -205 -1 -49 -20 -173
-150 -181 -189 -6 -28 -21 -68 -46 -121 -6 -13 -9 -92 -7 -195 l4 -174 32 -55
c32 -56 74 -94 128 -118 62 -27 243 -64 342 -69 100 -6 104 -5 167 26 86 42
163 126 213 232 l38 81 57 -6 c37 -4 71 -1 97 8 40 15 158 105 243 187 27 25
48 45 48 44 0 -1 -7 -23 -16 -49 -24 -70 -16 -236 15 -291 48 -88 129 -186
184 -224 58 -39 165 -71 243 -71 116 0 264 74 347 173 73 87 126 244 127 372
0 60 -5 79 -32 134 -18 35 -46 77 -63 93 -139 131 -187 171 -233 193 -61 29
-141 33 -186 10 -54 -28 -71 -16 -67 48 1 21 -2 44 -7 50 -13 17 -72 159 -72
174 0 8 -11 46 -25 85 -14 39 -25 73 -25 75 0 2 49 3 108 3 71 0 112 4 120 12
16 16 15 53 0 65 -20 16 -331 26 -346 11 -14 -14 -16 -50 -3 -64 5 -5 18 -33
29 -61 l20 -53 -266 -1 c-147 0 -291 -4 -320 -8 -49 -7 -53 -6 -66 18 -8 14
-23 44 -35 66 l-22 40 28 3 c37 5 53 19 53 47 0 34 -18 43 -100 49 -41 3 -102
8 -135 11 -42 5 -64 3 -72 -6z m967 -321 c0 -6 14 -46 32 -89 l31 -77 -44 -54
c-25 -29 -58 -70 -73 -91 -16 -22 -54 -67 -85 -100 -31 -34 -69 -80 -84 -102
-15 -22 -55 -62 -89 -90 -34 -27 -78 -65 -99 -82 -38 -35 -63 -41 -72 -20 -40
90 -78 198 -87 244 -6 32 -22 92 -34 133 -28 88 -56 233 -56 283 0 39 -5 36
90 50 14 3 148 5 298 6 203 1 272 -2 272 -11z m-721 -261 c1 -15 12 -59 25
-97 14 -39 21 -70 16 -70 -5 0 -11 4 -14 9 -3 5 -31 21 -62 37 -90 46 -94 48
-94 60 0 6 7 17 15 24 8 7 15 19 15 27 0 18 27 71 54 104 l21 26 12 -46 c6
-25 12 -58 12 -74z m-389 -62 c7 -8 22 -15 34 -15 11 -1 35 -9 53 -18 l32 -17
-43 -90 c-75 -158 -103 -274 -74 -303 8 -8 50 -12 122 -12 60 0 149 -5 198
-11 100 -13 98 -9 51 -102 -34 -69 -87 -122 -149 -153 -50 -24 -62 -26 -128
-21 -97 9 -284 53 -324 77 -17 11 -44 38 -59 61 -26 40 -28 49 -31 179 -4 135
-4 139 29 226 34 92 81 156 144 195 38 24 127 26 145 4z m1491 -15 c22 -12 81
-59 132 -106 100 -92 147 -167 147 -233 -1 -79 -63 -257 -107 -306 -64 -72
-204 -145 -276 -145 -56 0 -178 47 -215 83 -37 35 -113 131 -132 166 -23 44
-24 153 -2 222 11 35 23 76 26 90 3 14 29 53 58 85 29 33 65 74 79 93 30 38
24 45 50 -54 34 -124 113 -257 157 -263 29 -4 52 14 52 41 0 11 -15 40 -33 66
-51 71 -76 132 -94 224 -5 25 -3 27 30 27 19 0 40 7 47 15 17 20 33 19 81 -5z
m-1223 -107 c128 -72 138 -81 161 -139 11 -31 21 -73 21 -94 l0 -38 -37 9
c-21 5 -102 12 -179 16 l-142 6 10 36 c13 50 99 231 110 231 5 0 30 -12 56
-27z"/>
</g>
</svg>
